# xmcd
#
# Track frame offsets: 
#        150
#        11987
#        24665
#        36180
#        46810
#        57910
#        67910
#        78635
#        89270
#        99307
#        109970
#        121362
#        134335
#        146435
#        155020
#        165572
#        174867
#        185867
#        194587
#        206452
#        217425
#        227912
#        238850
#        248635
#        259005
#
# Disc length: 3589 seconds
#
# Revision: 11
# Processed by: cddbd v1.5.2PL0 Copyright (c) Steve Scherf et al.
# Submitted via: ExactAudioCopyFreeDBPlugin 1.0
#
DISCID=6d0e0319
DTITLE=Fats Domino - Antoine "Fats" Domino:  "They Call Me The Fat Man
DTITLE=. . ." - The Legendary Imperial Recordings) [box set]
DYEAR=1991
DGENRE=Rhythm and Blues
TTITLE0=The Fat Man
TTITLE1=She's My Baby
TTITLE2=Little Bee
TTITLE3=Boogie Woogie Baby
TTITLE4=Hey Là Bas Boogie
TTITLE5=Every Night About This Time
TTITLE6=Careless Love
TTITLE7=Don't Lie to Me
TTITLE8=Goin' Home
TTITLE9=Mardi Gras in New Orleans
TTITLE10=Going to the River
TTITLE11=Swanee River Hop
TTITLE12=Please Don't Leave Me
TTITLE13=Domino Stomp (Twistin' the Stomp)
TTITLE14=Rose Mary (version #2)
TTITLE15=Where Did You Stay
TTITLE16=You Can Pack Your Suitcase
TTITLE17=Love Me
TTITLE18=I Know
TTITLE19=Don't You Know
TTITLE20=All By Myself
TTITLE21=Ain't it a Shame
TTITLE22=La-La (version #1)
TTITLE23=Blue Monday
TTITLE24=Poor Me
EXTD=
EXTT0=
EXTT1=
EXTT2=
EXTT3=
EXTT4=
EXTT5=
EXTT6=
EXTT7=
EXTT8=
EXTT9=
EXTT10=
EXTT11=
EXTT12=
EXTT13=
EXTT14=
EXTT15=
EXTT16=
EXTT17=
EXTT18=
EXTT19=
EXTT20=
EXTT21=
EXTT22=
EXTT23=
EXTT24=
PLAYORDER=
